<mxfile host="Electron" modified="2023-11-24T21:45:19.268Z" agent="Mozilla/5.0 (Windows NT 10.0; Win64; x64) AppleWebKit/537.36 (KHTML, like Gecko) draw.io/21.1.2 Chrome/106.0.5249.199 Electron/21.4.3 Safari/537.36" etag="zi0XISdePO-XgMkey3h7" version="21.1.2" type="device">
  <diagram id="C5RBs43oDa-KdzZeNtuy" name="Page-1">
    <mxGraphModel dx="1595" dy="796" grid="0" gridSize="10" guides="0" tooltips="1" connect="1" arrows="1" fold="1" page="0" pageScale="1" pageWidth="827" pageHeight="1169" math="0" shadow="0">
      <root>
        <mxCell id="WIyWlLk6GJQsqaUBKTNV-0" />
        <mxCell id="WIyWlLk6GJQsqaUBKTNV-1" parent="WIyWlLk6GJQsqaUBKTNV-0" />
        <mxCell id="I7NrrdXykn8vBJ9__mML-2" value="" style="edgeStyle=orthogonalEdgeStyle;rounded=0;orthogonalLoop=1;jettySize=auto;html=1;" edge="1" parent="WIyWlLk6GJQsqaUBKTNV-1" source="WIyWlLk6GJQsqaUBKTNV-3" target="I7NrrdXykn8vBJ9__mML-1">
          <mxGeometry relative="1" as="geometry" />
        </mxCell>
        <mxCell id="WIyWlLk6GJQsqaUBKTNV-3" value="Request is generated to contain opcode, filename, file data in base64, etc." style="rounded=1;whiteSpace=wrap;html=1;fontSize=12;glass=0;strokeWidth=1;shadow=0;" parent="WIyWlLk6GJQsqaUBKTNV-1" vertex="1">
          <mxGeometry x="244" y="60" width="170" height="70" as="geometry" />
        </mxCell>
        <mxCell id="I7NrrdXykn8vBJ9__mML-4" value="" style="edgeStyle=orthogonalEdgeStyle;rounded=0;orthogonalLoop=1;jettySize=auto;html=1;" edge="1" parent="WIyWlLk6GJQsqaUBKTNV-1" source="I7NrrdXykn8vBJ9__mML-1" target="I7NrrdXykn8vBJ9__mML-3">
          <mxGeometry relative="1" as="geometry" />
        </mxCell>
        <mxCell id="I7NrrdXykn8vBJ9__mML-1" value="Request is encoded into a bytearray() object&amp;nbsp;" style="rounded=1;whiteSpace=wrap;html=1;fontSize=12;glass=0;strokeWidth=1;shadow=0;" vertex="1" parent="WIyWlLk6GJQsqaUBKTNV-1">
          <mxGeometry x="244" y="180" width="170" height="70" as="geometry" />
        </mxCell>
        <mxCell id="I7NrrdXykn8vBJ9__mML-6" value="" style="edgeStyle=orthogonalEdgeStyle;rounded=0;orthogonalLoop=1;jettySize=auto;html=1;" edge="1" parent="WIyWlLk6GJQsqaUBKTNV-1" source="I7NrrdXykn8vBJ9__mML-3" target="I7NrrdXykn8vBJ9__mML-5">
          <mxGeometry relative="1" as="geometry" />
        </mxCell>
        <mxCell id="I7NrrdXykn8vBJ9__mML-3" value="Request is sent to socket to IP address and Port" style="whiteSpace=wrap;html=1;rounded=1;glass=0;strokeWidth=1;shadow=0;" vertex="1" parent="WIyWlLk6GJQsqaUBKTNV-1">
          <mxGeometry x="269" y="280" width="120" height="60" as="geometry" />
        </mxCell>
        <mxCell id="I7NrrdXykn8vBJ9__mML-8" value="" style="edgeStyle=orthogonalEdgeStyle;rounded=0;orthogonalLoop=1;jettySize=auto;html=1;" edge="1" parent="WIyWlLk6GJQsqaUBKTNV-1" source="I7NrrdXykn8vBJ9__mML-5" target="I7NrrdXykn8vBJ9__mML-7">
          <mxGeometry relative="1" as="geometry" />
        </mxCell>
        <mxCell id="I7NrrdXykn8vBJ9__mML-5" value="Request is received by the server" style="whiteSpace=wrap;html=1;rounded=1;glass=0;strokeWidth=1;shadow=0;" vertex="1" parent="WIyWlLk6GJQsqaUBKTNV-1">
          <mxGeometry x="269" y="400" width="120" height="60" as="geometry" />
        </mxCell>
        <mxCell id="I7NrrdXykn8vBJ9__mML-10" value="" style="edgeStyle=orthogonalEdgeStyle;rounded=0;orthogonalLoop=1;jettySize=auto;html=1;entryX=0;entryY=0.5;entryDx=0;entryDy=0;" edge="1" parent="WIyWlLk6GJQsqaUBKTNV-1" source="I7NrrdXykn8vBJ9__mML-7" target="I7NrrdXykn8vBJ9__mML-9">
          <mxGeometry relative="1" as="geometry" />
        </mxCell>
        <mxCell id="I7NrrdXykn8vBJ9__mML-7" value="Request is decoded and parsed to perform the correct action" style="whiteSpace=wrap;html=1;rounded=1;glass=0;strokeWidth=1;shadow=0;" vertex="1" parent="WIyWlLk6GJQsqaUBKTNV-1">
          <mxGeometry x="253.5" y="500" width="151" height="60" as="geometry" />
        </mxCell>
        <mxCell id="I7NrrdXykn8vBJ9__mML-12" value="" style="edgeStyle=orthogonalEdgeStyle;rounded=0;orthogonalLoop=1;jettySize=auto;html=1;entryX=0.5;entryY=0;entryDx=0;entryDy=0;" edge="1" parent="WIyWlLk6GJQsqaUBKTNV-1" source="I7NrrdXykn8vBJ9__mML-9" target="I7NrrdXykn8vBJ9__mML-13">
          <mxGeometry relative="1" as="geometry">
            <mxPoint x="605.5" y="160" as="targetPoint" />
          </mxGeometry>
        </mxCell>
        <mxCell id="I7NrrdXykn8vBJ9__mML-9" value="Response is generated to contain&amp;nbsp; opcode, filename, file data in base64, etc." style="whiteSpace=wrap;html=1;rounded=1;glass=0;strokeWidth=1;shadow=0;" vertex="1" parent="WIyWlLk6GJQsqaUBKTNV-1">
          <mxGeometry x="510" y="60" width="191" height="60" as="geometry" />
        </mxCell>
        <mxCell id="I7NrrdXykn8vBJ9__mML-16" style="edgeStyle=orthogonalEdgeStyle;rounded=0;orthogonalLoop=1;jettySize=auto;html=1;" edge="1" parent="WIyWlLk6GJQsqaUBKTNV-1" source="I7NrrdXykn8vBJ9__mML-13" target="I7NrrdXykn8vBJ9__mML-15">
          <mxGeometry relative="1" as="geometry" />
        </mxCell>
        <mxCell id="I7NrrdXykn8vBJ9__mML-13" value="Response is encoded into a bytearray() object&amp;nbsp;" style="rounded=1;whiteSpace=wrap;html=1;fontSize=12;glass=0;strokeWidth=1;shadow=0;" vertex="1" parent="WIyWlLk6GJQsqaUBKTNV-1">
          <mxGeometry x="520.5" y="170" width="170" height="70" as="geometry" />
        </mxCell>
        <mxCell id="I7NrrdXykn8vBJ9__mML-18" value="" style="edgeStyle=orthogonalEdgeStyle;rounded=0;orthogonalLoop=1;jettySize=auto;html=1;" edge="1" parent="WIyWlLk6GJQsqaUBKTNV-1" source="I7NrrdXykn8vBJ9__mML-15" target="I7NrrdXykn8vBJ9__mML-17">
          <mxGeometry relative="1" as="geometry" />
        </mxCell>
        <mxCell id="I7NrrdXykn8vBJ9__mML-15" value="Response is sent back to the client&amp;nbsp;" style="whiteSpace=wrap;html=1;rounded=1;glass=0;strokeWidth=1;shadow=0;" vertex="1" parent="WIyWlLk6GJQsqaUBKTNV-1">
          <mxGeometry x="545.5" y="300" width="120" height="60" as="geometry" />
        </mxCell>
        <mxCell id="I7NrrdXykn8vBJ9__mML-22" value="" style="edgeStyle=orthogonalEdgeStyle;rounded=0;orthogonalLoop=1;jettySize=auto;html=1;" edge="1" parent="WIyWlLk6GJQsqaUBKTNV-1" source="I7NrrdXykn8vBJ9__mML-17" target="I7NrrdXykn8vBJ9__mML-21">
          <mxGeometry relative="1" as="geometry" />
        </mxCell>
        <mxCell id="I7NrrdXykn8vBJ9__mML-17" value="Client Receives Response" style="whiteSpace=wrap;html=1;rounded=1;glass=0;strokeWidth=1;shadow=0;" vertex="1" parent="WIyWlLk6GJQsqaUBKTNV-1">
          <mxGeometry x="545.5" y="410" width="120" height="60" as="geometry" />
        </mxCell>
        <mxCell id="I7NrrdXykn8vBJ9__mML-21" value="&lt;span style=&quot;color: rgb(0, 0, 0); font-family: Helvetica; font-size: 12px; font-style: normal; font-variant-ligatures: normal; font-variant-caps: normal; font-weight: 400; letter-spacing: normal; orphans: 2; text-align: center; text-indent: 0px; text-transform: none; widows: 2; word-spacing: 0px; -webkit-text-stroke-width: 0px; background-color: rgb(251, 251, 251); text-decoration-thickness: initial; text-decoration-style: initial; text-decoration-color: initial; float: none; display: inline !important;&quot;&gt;Client performs correct action based on response&lt;/span&gt;" style="whiteSpace=wrap;html=1;rounded=1;glass=0;strokeWidth=1;shadow=0;" vertex="1" parent="WIyWlLk6GJQsqaUBKTNV-1">
          <mxGeometry x="529.38" y="502.5" width="152.25" height="55" as="geometry" />
        </mxCell>
        <mxCell id="I7NrrdXykn8vBJ9__mML-23" value="" style="edgeStyle=orthogonalEdgeStyle;rounded=0;orthogonalLoop=1;jettySize=auto;html=1;" edge="1" parent="WIyWlLk6GJQsqaUBKTNV-1" source="I7NrrdXykn8vBJ9__mML-24" target="I7NrrdXykn8vBJ9__mML-26">
          <mxGeometry relative="1" as="geometry" />
        </mxCell>
        <mxCell id="I7NrrdXykn8vBJ9__mML-24" value="Request is generated to contain opcode, filename, file data in base64, etc." style="rounded=1;whiteSpace=wrap;html=1;fontSize=12;glass=0;strokeWidth=1;shadow=0;" vertex="1" parent="WIyWlLk6GJQsqaUBKTNV-1">
          <mxGeometry x="972" y="48" width="170" height="70" as="geometry" />
        </mxCell>
        <mxCell id="I7NrrdXykn8vBJ9__mML-43" value="" style="edgeStyle=orthogonalEdgeStyle;rounded=0;orthogonalLoop=1;jettySize=auto;html=1;entryX=0.5;entryY=0;entryDx=0;entryDy=0;" edge="1" parent="WIyWlLk6GJQsqaUBKTNV-1" source="I7NrrdXykn8vBJ9__mML-26" target="I7NrrdXykn8vBJ9__mML-44">
          <mxGeometry relative="1" as="geometry">
            <mxPoint x="1057" y="288" as="targetPoint" />
          </mxGeometry>
        </mxCell>
        <mxCell id="I7NrrdXykn8vBJ9__mML-26" value="Request is encoded into a bytearray() object&amp;nbsp;" style="rounded=1;whiteSpace=wrap;html=1;fontSize=12;glass=0;strokeWidth=1;shadow=0;" vertex="1" parent="WIyWlLk6GJQsqaUBKTNV-1">
          <mxGeometry x="972" y="168" width="170" height="70" as="geometry" />
        </mxCell>
        <mxCell id="I7NrrdXykn8vBJ9__mML-32" value="Request is decoded and parsed to perform the correct action" style="whiteSpace=wrap;html=1;rounded=1;glass=0;strokeWidth=1;shadow=0;" vertex="1" parent="WIyWlLk6GJQsqaUBKTNV-1">
          <mxGeometry x="2019" y="1067" width="151" height="60" as="geometry" />
        </mxCell>
        <mxCell id="I7NrrdXykn8vBJ9__mML-51" value="" style="edgeStyle=orthogonalEdgeStyle;rounded=0;orthogonalLoop=1;jettySize=auto;html=1;" edge="1" parent="WIyWlLk6GJQsqaUBKTNV-1" source="I7NrrdXykn8vBJ9__mML-44" target="I7NrrdXykn8vBJ9__mML-50">
          <mxGeometry relative="1" as="geometry" />
        </mxCell>
        <mxCell id="I7NrrdXykn8vBJ9__mML-44" value="Calculate the length of the byte array (total bytes to send)" style="whiteSpace=wrap;html=1;rounded=1;glass=0;strokeWidth=1;shadow=0;" vertex="1" parent="WIyWlLk6GJQsqaUBKTNV-1">
          <mxGeometry x="979" y="275" width="157" height="60" as="geometry" />
        </mxCell>
        <mxCell id="I7NrrdXykn8vBJ9__mML-49" value="" style="edgeStyle=orthogonalEdgeStyle;rounded=0;orthogonalLoop=1;jettySize=auto;html=1;exitX=0.5;exitY=1;exitDx=0;exitDy=0;" edge="1" parent="WIyWlLk6GJQsqaUBKTNV-1" source="I7NrrdXykn8vBJ9__mML-56" target="I7NrrdXykn8vBJ9__mML-48">
          <mxGeometry relative="1" as="geometry">
            <mxPoint x="811.5333333333333" y="371" as="sourcePoint" />
          </mxGeometry>
        </mxCell>
        <mxCell id="I7NrrdXykn8vBJ9__mML-58" style="edgeStyle=orthogonalEdgeStyle;rounded=0;orthogonalLoop=1;jettySize=auto;html=1;entryX=0;entryY=0.5;entryDx=0;entryDy=0;" edge="1" parent="WIyWlLk6GJQsqaUBKTNV-1" source="I7NrrdXykn8vBJ9__mML-48" target="I7NrrdXykn8vBJ9__mML-60">
          <mxGeometry relative="1" as="geometry">
            <mxPoint x="1227" y="70" as="targetPoint" />
          </mxGeometry>
        </mxCell>
        <mxCell id="I7NrrdXykn8vBJ9__mML-48" value="Send datagram with bytes&amp;nbsp; of response in range i to 1+1048 to server" style="whiteSpace=wrap;html=1;rounded=1;glass=0;strokeWidth=1;shadow=0;" vertex="1" parent="WIyWlLk6GJQsqaUBKTNV-1">
          <mxGeometry x="966" y="647" width="182" height="60" as="geometry" />
        </mxCell>
        <mxCell id="I7NrrdXykn8vBJ9__mML-50" value="Send to server the amount of bytes that will be sent" style="whiteSpace=wrap;html=1;rounded=1;glass=0;strokeWidth=1;shadow=0;" vertex="1" parent="WIyWlLk6GJQsqaUBKTNV-1">
          <mxGeometry x="978.5" y="374" width="157" height="60" as="geometry" />
        </mxCell>
        <mxCell id="I7NrrdXykn8vBJ9__mML-55" value="" style="edgeStyle=orthogonalEdgeStyle;rounded=0;orthogonalLoop=1;jettySize=auto;html=1;exitX=0.5;exitY=1;exitDx=0;exitDy=0;" edge="1" parent="WIyWlLk6GJQsqaUBKTNV-1" source="I7NrrdXykn8vBJ9__mML-50" target="I7NrrdXykn8vBJ9__mML-54">
          <mxGeometry relative="1" as="geometry">
            <mxPoint x="1057" y="530" as="sourcePoint" />
          </mxGeometry>
        </mxCell>
        <mxCell id="I7NrrdXykn8vBJ9__mML-57" style="edgeStyle=orthogonalEdgeStyle;rounded=0;orthogonalLoop=1;jettySize=auto;html=1;entryX=0.5;entryY=0;entryDx=0;entryDy=0;" edge="1" parent="WIyWlLk6GJQsqaUBKTNV-1" source="I7NrrdXykn8vBJ9__mML-54" target="I7NrrdXykn8vBJ9__mML-56">
          <mxGeometry relative="1" as="geometry" />
        </mxCell>
        <mxCell id="I7NrrdXykn8vBJ9__mML-54" value="Server acknowledges numbers of bytes to be received, sends ACK to client" style="whiteSpace=wrap;html=1;rounded=1;glass=0;strokeWidth=1;shadow=0;" vertex="1" parent="WIyWlLk6GJQsqaUBKTNV-1">
          <mxGeometry x="979" y="460" width="157" height="60" as="geometry" />
        </mxCell>
        <mxCell id="I7NrrdXykn8vBJ9__mML-56" value="client declares var i = 0" style="whiteSpace=wrap;html=1;rounded=1;glass=0;strokeWidth=1;shadow=0;" vertex="1" parent="WIyWlLk6GJQsqaUBKTNV-1">
          <mxGeometry x="979" y="560" width="157" height="60" as="geometry" />
        </mxCell>
        <mxCell id="I7NrrdXykn8vBJ9__mML-64" value="" style="edgeStyle=orthogonalEdgeStyle;rounded=0;orthogonalLoop=1;jettySize=auto;html=1;" edge="1" parent="WIyWlLk6GJQsqaUBKTNV-1" source="I7NrrdXykn8vBJ9__mML-60" target="I7NrrdXykn8vBJ9__mML-63">
          <mxGeometry relative="1" as="geometry" />
        </mxCell>
        <mxCell id="I7NrrdXykn8vBJ9__mML-60" value="Server receives datagram and appends it to &quot;data&quot;, a variable that concatenates all the received datagrams" style="rounded=1;whiteSpace=wrap;html=1;fontSize=12;glass=0;strokeWidth=1;shadow=0;" vertex="1" parent="WIyWlLk6GJQsqaUBKTNV-1">
          <mxGeometry x="1335" y="50" width="170" height="70" as="geometry" />
        </mxCell>
        <mxCell id="I7NrrdXykn8vBJ9__mML-66" value="Yes" style="edgeStyle=orthogonalEdgeStyle;rounded=0;orthogonalLoop=1;jettySize=auto;html=1;" edge="1" parent="WIyWlLk6GJQsqaUBKTNV-1" source="I7NrrdXykn8vBJ9__mML-63" target="I7NrrdXykn8vBJ9__mML-65">
          <mxGeometry relative="1" as="geometry">
            <Array as="points">
              <mxPoint x="1465" y="327" />
              <mxPoint x="1513" y="327" />
            </Array>
          </mxGeometry>
        </mxCell>
        <mxCell id="I7NrrdXykn8vBJ9__mML-70" value="No" style="edgeStyle=orthogonalEdgeStyle;rounded=0;orthogonalLoop=1;jettySize=auto;html=1;" edge="1" parent="WIyWlLk6GJQsqaUBKTNV-1" source="I7NrrdXykn8vBJ9__mML-63" target="I7NrrdXykn8vBJ9__mML-69">
          <mxGeometry relative="1" as="geometry" />
        </mxCell>
        <mxCell id="I7NrrdXykn8vBJ9__mML-63" value="Is len(data) &lt;br&gt;=&amp;nbsp;&lt;br&gt;&amp;nbsp;number of bytes&lt;br&gt;&amp;nbsp;expected?" style="rhombus;whiteSpace=wrap;html=1;rounded=1;glass=0;strokeWidth=1;shadow=0;" vertex="1" parent="WIyWlLk6GJQsqaUBKTNV-1">
          <mxGeometry x="1332" y="145" width="173" height="135" as="geometry" />
        </mxCell>
        <mxCell id="I7NrrdXykn8vBJ9__mML-77" value="" style="edgeStyle=orthogonalEdgeStyle;rounded=0;orthogonalLoop=1;jettySize=auto;html=1;entryX=0.5;entryY=0;entryDx=0;entryDy=0;" edge="1" parent="WIyWlLk6GJQsqaUBKTNV-1" source="I7NrrdXykn8vBJ9__mML-65" target="I7NrrdXykn8vBJ9__mML-74">
          <mxGeometry relative="1" as="geometry">
            <mxPoint x="1513" y="514" as="targetPoint" />
          </mxGeometry>
        </mxCell>
        <mxCell id="I7NrrdXykn8vBJ9__mML-65" value="Send ack to client that all bytes have been received" style="whiteSpace=wrap;html=1;rounded=1;glass=0;strokeWidth=1;shadow=0;" vertex="1" parent="WIyWlLk6GJQsqaUBKTNV-1">
          <mxGeometry x="1453" y="374" width="120" height="60" as="geometry" />
        </mxCell>
        <mxCell id="I7NrrdXykn8vBJ9__mML-71" value="&lt;br&gt;" style="edgeStyle=orthogonalEdgeStyle;rounded=0;orthogonalLoop=1;jettySize=auto;html=1;entryX=1;entryY=0.5;entryDx=0;entryDy=0;" edge="1" parent="WIyWlLk6GJQsqaUBKTNV-1" source="I7NrrdXykn8vBJ9__mML-69" target="I7NrrdXykn8vBJ9__mML-72">
          <mxGeometry relative="1" as="geometry">
            <mxPoint x="1254" y="846" as="targetPoint" />
            <Array as="points">
              <mxPoint x="1345" y="783" />
            </Array>
          </mxGeometry>
        </mxCell>
        <mxCell id="I7NrrdXykn8vBJ9__mML-69" value="Send ack to client requesting next datagram" style="whiteSpace=wrap;html=1;rounded=1;glass=0;strokeWidth=1;shadow=0;" vertex="1" parent="WIyWlLk6GJQsqaUBKTNV-1">
          <mxGeometry x="1291" y="374" width="120" height="60" as="geometry" />
        </mxCell>
        <mxCell id="I7NrrdXykn8vBJ9__mML-73" style="edgeStyle=orthogonalEdgeStyle;rounded=0;orthogonalLoop=1;jettySize=auto;html=1;entryX=0.5;entryY=1;entryDx=0;entryDy=0;" edge="1" parent="WIyWlLk6GJQsqaUBKTNV-1" source="I7NrrdXykn8vBJ9__mML-72" target="I7NrrdXykn8vBJ9__mML-48">
          <mxGeometry relative="1" as="geometry" />
        </mxCell>
        <mxCell id="I7NrrdXykn8vBJ9__mML-72" value="client Increments var i by 1048" style="whiteSpace=wrap;html=1;rounded=1;glass=0;strokeWidth=1;shadow=0;" vertex="1" parent="WIyWlLk6GJQsqaUBKTNV-1">
          <mxGeometry x="978.5" y="753" width="157" height="60" as="geometry" />
        </mxCell>
        <mxCell id="I7NrrdXykn8vBJ9__mML-88" style="edgeStyle=orthogonalEdgeStyle;rounded=0;orthogonalLoop=1;jettySize=auto;html=1;exitX=0.5;exitY=1;exitDx=0;exitDy=0;entryX=0.5;entryY=0;entryDx=0;entryDy=0;" edge="1" parent="WIyWlLk6GJQsqaUBKTNV-1" source="I7NrrdXykn8vBJ9__mML-74" target="I7NrrdXykn8vBJ9__mML-78">
          <mxGeometry relative="1" as="geometry" />
        </mxCell>
        <mxCell id="I7NrrdXykn8vBJ9__mML-74" value="Client Waits for server Response" style="whiteSpace=wrap;html=1;rounded=1;glass=0;strokeWidth=1;shadow=0;" vertex="1" parent="WIyWlLk6GJQsqaUBKTNV-1">
          <mxGeometry x="1453" y="489" width="120" height="60" as="geometry" />
        </mxCell>
        <mxCell id="I7NrrdXykn8vBJ9__mML-89" style="edgeStyle=orthogonalEdgeStyle;rounded=0;orthogonalLoop=1;jettySize=auto;html=1;exitX=1;exitY=0.5;exitDx=0;exitDy=0;entryX=0;entryY=0.5;entryDx=0;entryDy=0;" edge="1" parent="WIyWlLk6GJQsqaUBKTNV-1" source="I7NrrdXykn8vBJ9__mML-78" target="I7NrrdXykn8vBJ9__mML-80">
          <mxGeometry relative="1" as="geometry" />
        </mxCell>
        <mxCell id="I7NrrdXykn8vBJ9__mML-78" value="Client Request is decoded by server and parsed to perform the correct action" style="whiteSpace=wrap;html=1;rounded=1;glass=0;strokeWidth=1;shadow=0;" vertex="1" parent="WIyWlLk6GJQsqaUBKTNV-1">
          <mxGeometry x="1437.5" y="595" width="151" height="60" as="geometry" />
        </mxCell>
        <mxCell id="I7NrrdXykn8vBJ9__mML-79" value="" style="edgeStyle=orthogonalEdgeStyle;rounded=0;orthogonalLoop=1;jettySize=auto;html=1;entryX=0.5;entryY=0;entryDx=0;entryDy=0;" edge="1" parent="WIyWlLk6GJQsqaUBKTNV-1" source="I7NrrdXykn8vBJ9__mML-80" target="I7NrrdXykn8vBJ9__mML-82">
          <mxGeometry relative="1" as="geometry">
            <mxPoint x="1762.5" y="156.25" as="targetPoint" />
          </mxGeometry>
        </mxCell>
        <mxCell id="I7NrrdXykn8vBJ9__mML-80" value="Response is generated to contain&amp;nbsp; opcode, filename, file data in base64, etc." style="whiteSpace=wrap;html=1;rounded=1;glass=0;strokeWidth=1;shadow=0;" vertex="1" parent="WIyWlLk6GJQsqaUBKTNV-1">
          <mxGeometry x="1667" y="56.25" width="191" height="60" as="geometry" />
        </mxCell>
        <mxCell id="I7NrrdXykn8vBJ9__mML-101" style="edgeStyle=orthogonalEdgeStyle;rounded=0;orthogonalLoop=1;jettySize=auto;html=1;entryX=0.5;entryY=0;entryDx=0;entryDy=0;" edge="1" parent="WIyWlLk6GJQsqaUBKTNV-1" source="I7NrrdXykn8vBJ9__mML-82" target="I7NrrdXykn8vBJ9__mML-91">
          <mxGeometry relative="1" as="geometry" />
        </mxCell>
        <mxCell id="I7NrrdXykn8vBJ9__mML-82" value="Response is encoded into a bytearray() object&amp;nbsp;" style="rounded=1;whiteSpace=wrap;html=1;fontSize=12;glass=0;strokeWidth=1;shadow=0;" vertex="1" parent="WIyWlLk6GJQsqaUBKTNV-1">
          <mxGeometry x="1677.5" y="163" width="170" height="70" as="geometry" />
        </mxCell>
        <mxCell id="I7NrrdXykn8vBJ9__mML-102" style="edgeStyle=orthogonalEdgeStyle;rounded=0;orthogonalLoop=1;jettySize=auto;html=1;exitX=0.5;exitY=1;exitDx=0;exitDy=0;entryX=0.5;entryY=0;entryDx=0;entryDy=0;" edge="1" parent="WIyWlLk6GJQsqaUBKTNV-1" source="I7NrrdXykn8vBJ9__mML-91" target="I7NrrdXykn8vBJ9__mML-93">
          <mxGeometry relative="1" as="geometry" />
        </mxCell>
        <mxCell id="I7NrrdXykn8vBJ9__mML-91" value="Calculate the length of the byte array (total bytes to send)" style="whiteSpace=wrap;html=1;rounded=1;glass=0;strokeWidth=1;shadow=0;" vertex="1" parent="WIyWlLk6GJQsqaUBKTNV-1">
          <mxGeometry x="1684" y="281.25" width="157" height="60" as="geometry" />
        </mxCell>
        <mxCell id="I7NrrdXykn8vBJ9__mML-112" style="edgeStyle=orthogonalEdgeStyle;rounded=0;orthogonalLoop=1;jettySize=auto;html=1;exitX=1;exitY=0.5;exitDx=0;exitDy=0;entryX=0;entryY=0.5;entryDx=0;entryDy=0;" edge="1" parent="WIyWlLk6GJQsqaUBKTNV-1" source="I7NrrdXykn8vBJ9__mML-92" target="I7NrrdXykn8vBJ9__mML-96">
          <mxGeometry relative="1" as="geometry" />
        </mxCell>
        <mxCell id="I7NrrdXykn8vBJ9__mML-92" value="Send datagram with bytes&amp;nbsp; of response in range i to 1+1048 to Client" style="whiteSpace=wrap;html=1;rounded=1;glass=0;strokeWidth=1;shadow=0;" vertex="1" parent="WIyWlLk6GJQsqaUBKTNV-1">
          <mxGeometry x="1667" y="653.25" width="182" height="60" as="geometry" />
        </mxCell>
        <mxCell id="I7NrrdXykn8vBJ9__mML-103" style="edgeStyle=orthogonalEdgeStyle;rounded=0;orthogonalLoop=1;jettySize=auto;html=1;entryX=0.5;entryY=0;entryDx=0;entryDy=0;" edge="1" parent="WIyWlLk6GJQsqaUBKTNV-1" source="I7NrrdXykn8vBJ9__mML-93" target="I7NrrdXykn8vBJ9__mML-94">
          <mxGeometry relative="1" as="geometry" />
        </mxCell>
        <mxCell id="I7NrrdXykn8vBJ9__mML-93" value="Send to Client the amount of bytes that will be sent" style="whiteSpace=wrap;html=1;rounded=1;glass=0;strokeWidth=1;shadow=0;" vertex="1" parent="WIyWlLk6GJQsqaUBKTNV-1">
          <mxGeometry x="1679.5" y="380.25" width="157" height="60" as="geometry" />
        </mxCell>
        <mxCell id="I7NrrdXykn8vBJ9__mML-104" style="edgeStyle=orthogonalEdgeStyle;rounded=0;orthogonalLoop=1;jettySize=auto;html=1;exitX=0.5;exitY=1;exitDx=0;exitDy=0;entryX=0.5;entryY=0;entryDx=0;entryDy=0;" edge="1" parent="WIyWlLk6GJQsqaUBKTNV-1" source="I7NrrdXykn8vBJ9__mML-94" target="I7NrrdXykn8vBJ9__mML-95">
          <mxGeometry relative="1" as="geometry" />
        </mxCell>
        <mxCell id="I7NrrdXykn8vBJ9__mML-94" value="Client acknowledges numbers of bytes to be received, sends ACK to client" style="whiteSpace=wrap;html=1;rounded=1;glass=0;strokeWidth=1;shadow=0;" vertex="1" parent="WIyWlLk6GJQsqaUBKTNV-1">
          <mxGeometry x="1680" y="466.25" width="157" height="60" as="geometry" />
        </mxCell>
        <mxCell id="I7NrrdXykn8vBJ9__mML-105" style="edgeStyle=orthogonalEdgeStyle;rounded=0;orthogonalLoop=1;jettySize=auto;html=1;exitX=0.5;exitY=1;exitDx=0;exitDy=0;entryX=0.5;entryY=0;entryDx=0;entryDy=0;" edge="1" parent="WIyWlLk6GJQsqaUBKTNV-1" source="I7NrrdXykn8vBJ9__mML-95" target="I7NrrdXykn8vBJ9__mML-92">
          <mxGeometry relative="1" as="geometry" />
        </mxCell>
        <mxCell id="I7NrrdXykn8vBJ9__mML-95" value="Server declares var i = 0" style="whiteSpace=wrap;html=1;rounded=1;glass=0;strokeWidth=1;shadow=0;" vertex="1" parent="WIyWlLk6GJQsqaUBKTNV-1">
          <mxGeometry x="1680" y="566.25" width="157" height="60" as="geometry" />
        </mxCell>
        <mxCell id="I7NrrdXykn8vBJ9__mML-108" style="edgeStyle=orthogonalEdgeStyle;rounded=0;orthogonalLoop=1;jettySize=auto;html=1;exitX=0.5;exitY=1;exitDx=0;exitDy=0;entryX=0.5;entryY=0;entryDx=0;entryDy=0;" edge="1" parent="WIyWlLk6GJQsqaUBKTNV-1" source="I7NrrdXykn8vBJ9__mML-96" target="I7NrrdXykn8vBJ9__mML-97">
          <mxGeometry relative="1" as="geometry" />
        </mxCell>
        <mxCell id="I7NrrdXykn8vBJ9__mML-96" value="Client receives datagram and appends it to &quot;data&quot;, a variable that concatenates all the received datagrams" style="rounded=1;whiteSpace=wrap;html=1;fontSize=12;glass=0;strokeWidth=1;shadow=0;" vertex="1" parent="WIyWlLk6GJQsqaUBKTNV-1">
          <mxGeometry x="2036" y="56.25" width="170" height="70" as="geometry" />
        </mxCell>
        <mxCell id="I7NrrdXykn8vBJ9__mML-97" value="Is len(data) &lt;br&gt;=&amp;nbsp;&lt;br&gt;&amp;nbsp;number of bytes&lt;br&gt;&amp;nbsp;expected?" style="rhombus;whiteSpace=wrap;html=1;rounded=1;glass=0;strokeWidth=1;shadow=0;" vertex="1" parent="WIyWlLk6GJQsqaUBKTNV-1">
          <mxGeometry x="2033" y="151.25" width="173" height="135" as="geometry" />
        </mxCell>
        <mxCell id="I7NrrdXykn8vBJ9__mML-98" value="Send ack to Server that all bytes have been received" style="whiteSpace=wrap;html=1;rounded=1;glass=0;strokeWidth=1;shadow=0;" vertex="1" parent="WIyWlLk6GJQsqaUBKTNV-1">
          <mxGeometry x="2154" y="380.25" width="120" height="60" as="geometry" />
        </mxCell>
        <mxCell id="I7NrrdXykn8vBJ9__mML-113" style="edgeStyle=orthogonalEdgeStyle;rounded=0;orthogonalLoop=1;jettySize=auto;html=1;exitX=0.5;exitY=1;exitDx=0;exitDy=0;entryX=1;entryY=0.5;entryDx=0;entryDy=0;" edge="1" parent="WIyWlLk6GJQsqaUBKTNV-1" source="I7NrrdXykn8vBJ9__mML-99" target="I7NrrdXykn8vBJ9__mML-100">
          <mxGeometry relative="1" as="geometry" />
        </mxCell>
        <mxCell id="I7NrrdXykn8vBJ9__mML-99" value="Send ack to Server requesting next datagram" style="whiteSpace=wrap;html=1;rounded=1;glass=0;strokeWidth=1;shadow=0;" vertex="1" parent="WIyWlLk6GJQsqaUBKTNV-1">
          <mxGeometry x="1992" y="380.25" width="120" height="60" as="geometry" />
        </mxCell>
        <mxCell id="I7NrrdXykn8vBJ9__mML-114" style="edgeStyle=orthogonalEdgeStyle;rounded=0;orthogonalLoop=1;jettySize=auto;html=1;exitX=0.5;exitY=0;exitDx=0;exitDy=0;entryX=0.5;entryY=1;entryDx=0;entryDy=0;" edge="1" parent="WIyWlLk6GJQsqaUBKTNV-1" source="I7NrrdXykn8vBJ9__mML-100" target="I7NrrdXykn8vBJ9__mML-92">
          <mxGeometry relative="1" as="geometry" />
        </mxCell>
        <mxCell id="I7NrrdXykn8vBJ9__mML-100" value="Server Increments var i by 1048" style="whiteSpace=wrap;html=1;rounded=1;glass=0;strokeWidth=1;shadow=0;" vertex="1" parent="WIyWlLk6GJQsqaUBKTNV-1">
          <mxGeometry x="1679.5" y="759.25" width="157" height="60" as="geometry" />
        </mxCell>
        <mxCell id="I7NrrdXykn8vBJ9__mML-109" value="Yes" style="edgeStyle=orthogonalEdgeStyle;rounded=0;orthogonalLoop=1;jettySize=auto;html=1;exitX=1;exitY=0.5;exitDx=0;exitDy=0;entryX=0.5;entryY=0;entryDx=0;entryDy=0;" edge="1" parent="WIyWlLk6GJQsqaUBKTNV-1" source="I7NrrdXykn8vBJ9__mML-97" target="I7NrrdXykn8vBJ9__mML-98">
          <mxGeometry relative="1" as="geometry">
            <mxPoint x="2147" y="244" as="sourcePoint" />
            <mxPoint x="2195" y="374" as="targetPoint" />
            <Array as="points">
              <mxPoint x="2230" y="219" />
              <mxPoint x="2230" y="327" />
              <mxPoint x="2214" y="327" />
            </Array>
          </mxGeometry>
        </mxCell>
        <mxCell id="I7NrrdXykn8vBJ9__mML-110" value="No" style="edgeStyle=orthogonalEdgeStyle;rounded=0;orthogonalLoop=1;jettySize=auto;html=1;exitX=0;exitY=0.5;exitDx=0;exitDy=0;entryX=0.5;entryY=0;entryDx=0;entryDy=0;" edge="1" parent="WIyWlLk6GJQsqaUBKTNV-1" source="I7NrrdXykn8vBJ9__mML-97" target="I7NrrdXykn8vBJ9__mML-99">
          <mxGeometry relative="1" as="geometry">
            <mxPoint x="2101" y="280" as="sourcePoint" />
            <mxPoint x="2033" y="374" as="targetPoint" />
          </mxGeometry>
        </mxCell>
        <mxCell id="I7NrrdXykn8vBJ9__mML-111" value="Is len(data) &lt;br&gt;=&amp;nbsp;&lt;br&gt;&amp;nbsp;number of bytes&lt;br&gt;&amp;nbsp;expected?" style="rhombus;whiteSpace=wrap;html=1;rounded=1;glass=0;strokeWidth=1;shadow=0;" vertex="1" parent="WIyWlLk6GJQsqaUBKTNV-1">
          <mxGeometry x="2715" y="151.25" width="173" height="135" as="geometry" />
        </mxCell>
        <mxCell id="I7NrrdXykn8vBJ9__mML-115" value="" style="edgeStyle=orthogonalEdgeStyle;rounded=0;orthogonalLoop=1;jettySize=auto;html=1;exitX=0.5;exitY=1;exitDx=0;exitDy=0;" edge="1" parent="WIyWlLk6GJQsqaUBKTNV-1" source="I7NrrdXykn8vBJ9__mML-98" target="I7NrrdXykn8vBJ9__mML-117">
          <mxGeometry relative="1" as="geometry">
            <mxPoint x="2214" y="544" as="sourcePoint" />
          </mxGeometry>
        </mxCell>
        <mxCell id="I7NrrdXykn8vBJ9__mML-117" value="&lt;span style=&quot;color: rgb(0, 0, 0); font-family: Helvetica; font-size: 12px; font-style: normal; font-variant-ligatures: normal; font-variant-caps: normal; font-weight: 400; letter-spacing: normal; orphans: 2; text-align: center; text-indent: 0px; text-transform: none; widows: 2; word-spacing: 0px; -webkit-text-stroke-width: 0px; background-color: rgb(251, 251, 251); text-decoration-thickness: initial; text-decoration-style: initial; text-decoration-color: initial; float: none; display: inline !important;&quot;&gt;Client performs correct action based on response&lt;/span&gt;" style="whiteSpace=wrap;html=1;rounded=1;glass=0;strokeWidth=1;shadow=0;" vertex="1" parent="WIyWlLk6GJQsqaUBKTNV-1">
          <mxGeometry x="2137.87" y="511.25" width="152.25" height="55" as="geometry" />
        </mxCell>
      </root>
    </mxGraphModel>
  </diagram>
</mxfile>
